<?xml version="1.0" standalone="no"?>
<!DOCTYPE svg PUBLIC "-//W3C//DTD SVG 20010904//EN"
 "http://www.w3.org/TR/2001/REC-SVG-20010904/DTD/svg10.dtd">
<svg version="1.0" xmlns="http://www.w3.org/2000/svg"
 width="256.000000pt" height="256.000000pt" viewBox="0 0 256.000000 256.000000"
 preserveAspectRatio="xMidYMid meet">

<g transform="translate(0.000000,256.000000) scale(0.100000,-0.100000)"
fill="#000000" stroke="none">
<path d="M1250 2553 c-8 -3 -46 -33 -85 -66 -219 -189 -448 -276 -774 -295
-129 -8 -135 -9 -157 -36 -23 -26 -24 -35 -26 -199 -4 -256 2 -529 13 -642 24
-237 80 -440 172 -619 152 -298 424 -524 798 -666 l86 -32 68 22 c108 36 353
165 445 234 220 165 379 388 465 651 81 248 105 504 97 1047 -2 170 -3 178
-26 204 -22 27 -28 28 -157 36 -327 19 -556 106 -776 296 -68 60 -110 78 -143
65z m518 -1013 c-2 -3 -133 -128 -291 -277 -189 -178 -297 -273 -315 -276 -46
-9 -82 20 -231 185 l-143 160 57 51 c86 77 79 77 143 5 31 -34 81 -89 112
-121 l55 -57 245 235 245 235 63 -67 c34 -36 61 -69 60 -73z"/>
</g>
</svg>
